<?xml version="1.0" encoding="UTF-8"?>
<svg xmlns="http://www.w3.org/2000/svg" xmlns:xlink="http://www.w3.org/1999/xlink" width="144pt" height="144pt" viewBox="0 0 144 144" version="1.1">
<g id="surface657958">
<path style=" stroke:none;fill-rule:nonzero;fill:rgb(46.27451%,62.352941%,79.215686%);fill-opacity:1;" d="M 58.367188 13.5 C 57.523438 13.523438 56.707031 13.789062 56.003906 14.253906 L 15.503906 41.253906 C 14.253906 42.089844 13.5 43.496094 13.5 45 L 13.5 112.5 C 13.503906 114.503906 14.835938 116.261719 16.761719 116.816406 L 16.761719 116.824219 C 16.773438 116.828125 16.789062 116.832031 16.804688 116.832031 L 79.761719 134.824219 C 81.066406 135.199219 82.472656 134.960938 83.585938 134.183594 L 128.585938 102.683594 C 129.785156 101.839844 130.5 100.464844 130.5 99 L 130.5 31.5 C 130.5 29.355469 128.984375 27.507812 126.878906 27.085938 L 126.765625 27.0625 C 126.75 27.058594 126.734375 27.054688 126.722656 27.054688 L 59.703125 13.660156 C 59.617188 13.636719 59.527344 13.613281 59.441406 13.597656 L 59.378906 13.585938 C 59.046875 13.519531 58.707031 13.492188 58.367188 13.5 Z M 63 23.484375 L 113.710938 33.628906 L 80.21875 53.726562 L 63 50.035156 Z M 54 26.410156 L 54 48.113281 L 29.363281 42.828125 Z M 121.5 39.445312 L 121.5 93.136719 L 85.5 83.539062 L 85.5 61.046875 Z M 22.5 50.570312 L 54 57.320312 L 54 78.804688 L 22.5 103.304688 Z M 63 59.246094 L 76.5 62.140625 L 76.5 81.140625 L 63 77.539062 Z M 59.492188 85.921875 L 76.5 90.457031 L 76.5 124.53125 L 27.753906 110.609375 Z M 85.5 92.855469 L 115.503906 100.863281 L 85.5 121.859375 Z M 85.5 92.855469 "/>
</g>
</svg>
